<svg viewBox="0 0 64 64" xmlns="http://www.w3.org/2000/svg">
  <defs>
    <linearGradient id="g" x1="8" y1="8" x2="56" y2="56" gradientUnits="userSpaceOnUse">
      <stop stop-color="#22d3ee"/>
      <stop offset="0.5" stop-color="#a78bfa"/>
      <stop offset="1" stop-color="#e879f9"/>
    </linearGradient>
  </defs>
  <rect width="64" height="64" rx="14" fill="#0b0d1d"/>
  <circle cx="32" cy="32" r="21" stroke="url(#g)" stroke-width="2.5" fill="none" opacity="0.7"/>
  <g>
    <path d="M32 32 C 28 19, 36 12, 47 16 C 39 20, 37 25, 32 32 Z" fill="url(#g)"/>
    <path d="M32 32 C 28 19, 36 12, 47 16 C 39 20, 37 25, 32 32 Z" fill="#22d3ee" opacity="0.9" transform="rotate(120 32 32)"/>
    <path d="M32 32 C 28 19, 36 12, 47 16 C 39 20, 37 25, 32 32 Z" fill="#e879f9" opacity="0.9" transform="rotate(240 32 32)"/>
  </g>
  <circle cx="32" cy="32" r="5.5" fill="#0b0d1d" stroke="url(#g)" stroke-width="2"/>
</svg>
